<?xml version="1.0" encoding="iso-8859-1"?>
<!-- Generator: Adobe Illustrator 19.0.0, SVG Export Plug-In . SVG Version: 6.00 Build 0)  -->
<svg version="1.1" id="Layer_1" xmlns="http://www.w3.org/2000/svg" xmlns:xlink="http://www.w3.org/1999/xlink" x="0px" y="0px"
	 viewBox="0 0 438.2 438.2" style="enable-background:new 0 0 438.2 438.2;" xml:space="preserve">
<g>
	<g id="XMLID_2_">
		<g>
			<path style="fill:#F4581B;" d="M327.884,124.839c32.8,18.61,54.92,53.85,54.92,94.26s-22.12,75.65-54.92,94.25
				c-42.33-10.46-73.71-48.69-73.71-94.25c0-45.57,31.38-83.79,73.71-94.25V124.839z"/>
			<path style="fill:#F7CF52;" d="M327.884,124.839v0.01c-42.33,10.46-73.71,48.68-73.71,94.25c0,45.56,31.38,83.79,73.71,94.25
				c-15.76,8.95-33.98,14.06-53.39,14.06c-59.82,0-108.31-48.49-108.31-108.31s48.49-108.32,108.31-108.32
				C293.904,110.779,312.124,115.889,327.884,124.839z"/>
		</g>
	</g>
	<rect x="266.996" y="348.358" style="fill:#F7CF52;" width="15" height="89.842"/>
	<rect x="266.996" style="fill:#F7CF52;" width="15" height="89.842"/>
	
		<rect x="143.838" y="297.341" transform="matrix(-0.7071 -0.7071 0.7071 -0.7071 16.3354 691.2888)" style="fill:#F7CF52;" width="15" height="89.841"/>
	<rect x="55.396" y="211.6" style="fill:#F7CF52;" width="89.842" height="15"/>
	
		<rect x="106.412" y="88.435" transform="matrix(-0.7071 -0.7071 0.7071 -0.7071 190.5049 270.7802)" style="fill:#F7CF52;" width="89.841" height="15"/>
	<g>
		
			<rect x="313.124" y="347.297" transform="matrix(-0.3826 -0.9239 0.9239 -0.3826 129.4419 796.0912)" style="fill:#F4581B;" width="35.174" height="15"/>
		
			<rect x="200.701" y="75.897" transform="matrix(-0.3826 -0.9239 0.9239 -0.3826 224.7537 316.9841)" style="fill:#F4581B;" width="35.174" height="15"/>
		
			<rect x="210.785" y="337.209" transform="matrix(-0.9239 -0.3826 0.3826 -0.9239 284.2135 766.1119)" style="fill:#F4581B;" width="15" height="35.174"/>
		
			<rect x="323.201" y="65.81" transform="matrix(-0.9239 -0.3826 0.3826 -0.9239 604.3321 286.9755)" style="fill:#F4581B;" width="15" height="35.174"/>
		
			<rect x="131.296" y="257.715" transform="matrix(-0.3826 -0.9239 0.9239 -0.3826 -62.4538 508.8688)" style="fill:#F4581B;" width="15" height="35.174"/>
		
			<rect x="121.209" y="155.389" transform="matrix(-0.9239 -0.3826 0.3826 -0.9239 204.7084 366.4883)" style="fill:#F4581B;" width="35.174" height="15"/>
	</g>
</g>
<g>
</g>
<g>
</g>
<g>
</g>
<g>
</g>
<g>
</g>
<g>
</g>
<g>
</g>
<g>
</g>
<g>
</g>
<g>
</g>
<g>
</g>
<g>
</g>
<g>
</g>
<g>
</g>
<g>
</g>
</svg>
