<?xml version="1.0" encoding="iso-8859-1"?>
<!-- Generator: Adobe Illustrator 19.0.0, SVG Export Plug-In . SVG Version: 6.00 Build 0)  -->
<svg version="1.1" id="Layer_1" xmlns="http://www.w3.org/2000/svg" xmlns:xlink="http://www.w3.org/1999/xlink" x="0px" y="0px"
	 viewBox="0 0 380.446 380.446" style="enable-background:new 0 0 380.446 380.446;" xml:space="preserve">
<g>
	<path style="fill:#F7CF52;" d="M254.946,0c21.254,0,41.693,3.488,60.778,9.919c-75.252,25.357-129.446,96.501-129.446,180.304
		c0,83.804,54.193,154.947,129.446,180.304c-19.085,6.431-39.524,9.919-60.778,9.919c-105.058,0-190.224-85.166-190.224-190.224
		S149.889,0,254.946,0z"/>
	<path style="fill:#E2BC50;" d="M254.953,0.003c5.8,0,11.54,0.26,17.2,0.77c-96.95,8.74-172.93,90.22-172.93,189.45
		c0,99.25,76.01,180.74,172.99,189.45c-5.68,0.51-11.44,0.77-17.26,0.77c-105.06,0-190.23-85.16-190.23-190.22
		S149.893,0.003,254.953,0.003z"/>
</g>
<g>
</g>
<g>
</g>
<g>
</g>
<g>
</g>
<g>
</g>
<g>
</g>
<g>
</g>
<g>
</g>
<g>
</g>
<g>
</g>
<g>
</g>
<g>
</g>
<g>
</g>
<g>
</g>
<g>
</g>
</svg>
