<?xml version="1.0" encoding="iso-8859-1"?>
<!-- Generator: Adobe Illustrator 19.0.0, SVG Export Plug-In . SVG Version: 6.00 Build 0)  -->
<svg version="1.1" id="Layer_1" xmlns="http://www.w3.org/2000/svg" xmlns:xlink="http://www.w3.org/1999/xlink" x="0px" y="0px"
	 viewBox="0 0 380.446 380.446" style="enable-background:new 0 0 380.446 380.446;" xml:space="preserve">
<path style="fill:#F7CF52;" d="M144.264,0c-35.976,0-69.617,9.99-98.306,27.343c55.09,33.321,91.917,93.799,91.917,162.88
	s-36.827,129.559-91.917,162.88c28.689,17.353,62.33,27.343,98.306,27.343c105.058,0,190.224-85.166,190.224-190.224
	S249.322,0,144.264,0z"/>
<path style="fill:#E2BC50;" d="M144.258,0.003c-5.8,0-11.54,0.26-17.2,0.77c96.95,8.74,172.93,90.22,172.93,189.45
	c0,99.25-76.01,180.74-172.99,189.45c5.68,0.51,11.44,0.77,17.26,0.77c105.06,0,190.23-85.16,190.23-190.22
	S249.318,0.003,144.258,0.003z"/>
<g>
</g>
<g>
</g>
<g>
</g>
<g>
</g>
<g>
</g>
<g>
</g>
<g>
</g>
<g>
</g>
<g>
</g>
<g>
</g>
<g>
</g>
<g>
</g>
<g>
</g>
<g>
</g>
<g>
</g>
</svg>
