<?xml version="1.0" encoding="iso-8859-1"?>
<!-- Generator: Adobe Illustrator 19.0.0, SVG Export Plug-In . SVG Version: 6.00 Build 0)  -->
<svg version="1.1" id="Layer_1" xmlns="http://www.w3.org/2000/svg" xmlns:xlink="http://www.w3.org/1999/xlink" x="0px" y="0px"
	 viewBox="0 0 464.043 464.043" style="enable-background:new 0 0 464.043 464.043;" xml:space="preserve">
<g>
	<path style="fill:#008DB3;" d="M252.708,464.043c-15.657,0-28.396-12.738-28.396-28.396V243.55h15v192.097
		c0,7.386,6.009,13.396,13.396,13.396c7.387,0,13.396-6.009,13.396-13.396v-7.5h15v7.5
		C281.104,451.305,268.366,464.043,252.708,464.043z"/>
	<rect x="224.521" y="92.089" style="fill:#008DB3;" width="15" height="35.227"/>
	<g>
		<rect x="81.352" style="fill:#96E0DE;" width="15" height="42.496"/>
		<rect x="81.352" y="56.894" style="fill:#96E0DE;" width="15" height="117.325"/>
		<rect x="117.142" style="fill:#96E0DE;" width="15" height="131.79"/>
		<rect x="152.941" style="fill:#96E0DE;" width="15" height="64.918"/>
		<rect x="152.941" y="79.317" style="fill:#96E0DE;" width="15" height="29.243"/>
		<rect x="188.731" style="fill:#96E0DE;" width="15" height="96.22"/>
		<rect x="224.521" style="fill:#96E0DE;" width="15" height="72.895"/>
		<rect x="260.312" style="fill:#96E0DE;" width="15" height="23.494"/>
		<rect x="260.312" y="38.794" style="fill:#96E0DE;" width="15" height="57.426"/>
		<rect x="296.102" style="fill:#96E0DE;" width="15" height="108.56"/>
		<rect x="331.901" style="fill:#96E0DE;" width="15" height="92.291"/>
		<rect x="331.901" y="107.494" style="fill:#96E0DE;" width="15" height="24.296"/>
		<rect x="367.691" style="fill:#96E0DE;" width="15" height="174.22"/>
	</g>
	<g id="XMLID_9_">
		<g>
			<path style="fill:#F4581B;" d="M375.184,262.981c0,0-12.62-6.15-29.74-6.15c-13.61,0-30.05,3.88-45.25,17.82
				c0-79.07-42.46-154.83-68.17-154.83c39.54,0,75.32,16.02,101.23,41.93C359.164,187.651,375.184,223.451,375.184,262.981z"/>
			<path style="fill:#F7CF52;" d="M163.854,274.651c0-79.07,42.45-154.83,68.17-154.83c25.71,0,68.17,75.76,68.17,154.83
				c-17.17-15.74-42.67-23.6-68.17-23.6S181.024,258.911,163.854,274.651z"/>
			<path style="fill:#F4581B;" d="M232.024,119.821c-25.72,0-68.17,75.76-68.17,154.83c-34.34-31.47-75-11.67-75-11.67
				C88.854,183.911,152.954,119.821,232.024,119.821z"/>
		</g>
	</g>
</g>
<g>
</g>
<g>
</g>
<g>
</g>
<g>
</g>
<g>
</g>
<g>
</g>
<g>
</g>
<g>
</g>
<g>
</g>
<g>
</g>
<g>
</g>
<g>
</g>
<g>
</g>
<g>
</g>
<g>
</g>
</svg>
