<?xml version="1.0" encoding="iso-8859-1"?>
<!-- Generator: Adobe Illustrator 19.0.0, SVG Export Plug-In . SVG Version: 6.00 Build 0)  -->
<svg version="1.1" id="Layer_1" xmlns="http://www.w3.org/2000/svg" xmlns:xlink="http://www.w3.org/1999/xlink" x="0px" y="0px"
	 viewBox="0 0 381.136 381.136" style="enable-background:new 0 0 381.136 381.136;" xml:space="preserve">
<g>
	<path style="fill:#808080;" d="M54.609,75c-20.678,0-37.5-16.823-37.5-37.5S33.932,0,54.609,0s37.5,16.823,37.5,37.5
		S75.287,75,54.609,75z M54.609,15c-12.407,0-22.5,10.094-22.5,22.5S42.203,60,54.609,60s22.5-10.094,22.5-22.5S67.016,15,54.609,15
		z"/>
	<polygon style="fill:#999999;" points="235.36,66.934 364.027,66.934 364.027,36.925 133.816,36.925 133.816,381.136 
		163.825,381.136 163.825,197.301 320.027,197.301 320.027,167.292 163.825,167.292 163.825,66.934 192.027,66.934 	"/>
</g>
<g>
</g>
<g>
</g>
<g>
</g>
<g>
</g>
<g>
</g>
<g>
</g>
<g>
</g>
<g>
</g>
<g>
</g>
<g>
</g>
<g>
</g>
<g>
</g>
<g>
</g>
<g>
</g>
<g>
</g>
</svg>
