<?xml version="1.0" encoding="iso-8859-1"?>
<!-- Generator: Adobe Illustrator 19.0.0, SVG Export Plug-In . SVG Version: 6.00 Build 0)  -->
<svg version="1.1" id="Layer_1" xmlns="http://www.w3.org/2000/svg" xmlns:xlink="http://www.w3.org/1999/xlink" x="0px" y="0px"
	 viewBox="0 0 381.135 381.135" style="enable-background:new 0 0 381.135 381.135;" xml:space="preserve">
<g>
	<path style="fill:#999999;" d="M330.82,308.257c-25.808,26.451-61.844,42.87-101.722,42.87
		c-78.478,0-142.096-63.619-142.096-142.096S150.62,66.934,229.098,66.934c39.878,0,75.914,16.419,101.722,42.87h38.823
		c-31.201-44.062-82.567-72.879-140.545-72.879c-94.905,0-172.105,77.209-172.105,172.105s77.2,172.105,172.105,172.105
		c57.977,0,109.344-28.817,140.545-72.879L330.82,308.257L330.82,308.257z"/>
	<path style="fill:#808080;" d="M48.992,75c-20.678,0-37.5-16.823-37.5-37.5S28.314,0,48.992,0s37.5,16.823,37.5,37.5
		S69.669,75,48.992,75z M48.992,15c-12.407,0-22.5,10.094-22.5,22.5S36.585,60,48.992,60s22.5-10.094,22.5-22.5S61.398,15,48.992,15
		z"/>
</g>
<g>
</g>
<g>
</g>
<g>
</g>
<g>
</g>
<g>
</g>
<g>
</g>
<g>
</g>
<g>
</g>
<g>
</g>
<g>
</g>
<g>
</g>
<g>
</g>
<g>
</g>
<g>
</g>
<g>
</g>
</svg>
