<?xml version="1.0" encoding="iso-8859-1"?>
<!-- Generator: Adobe Illustrator 19.0.0, SVG Export Plug-In . SVG Version: 6.00 Build 0)  -->
<svg version="1.1" id="Layer_1" xmlns="http://www.w3.org/2000/svg" xmlns:xlink="http://www.w3.org/1999/xlink" x="0px" y="0px"
	 viewBox="0 0 426.121 426.121" style="enable-background:new 0 0 426.121 426.121;" xml:space="preserve">
<g>
	<path style="fill:#76CDCE;" d="M258.793,265.096V45.737c0-25.259-20.476-45.735-45.735-45.735l0,0
		c-25.259,0-45.735,20.476-45.735,45.735v219.359c-25.558,15.826-42.319,44.506-41.223,77.023
		c1.511,44.824,37.469,81.522,82.256,83.878c50.188,2.64,91.71-37.273,91.71-86.885C300.067,307.84,283.56,280.433,258.793,265.096z
		"/>
	<path style="fill:#F4581B;" d="M233.793,50.002V279.02l11.838,7.331c18.432,11.414,29.436,31.137,29.436,52.761
		c0,16.564-6.45,32.137-18.161,43.848s-27.281,18.161-43.843,18.161c-0.001,0-0.002,0-0.003,0c-1.124,0-2.264-0.03-3.389-0.089
		c-31.777-1.672-57.511-27.919-58.584-59.755c-0.748-22.187,10.517-43.233,29.399-54.926l11.838-7.331V50.002H233.793z"/>
	<path style="fill:#96E0DE;" d="M300.071,339.11c0,6.94-0.81,13.68-2.35,20.15l-130.4-130.4V45.74c0-12.63,5.12-24.07,13.4-32.34
		c8.28-8.28,19.71-13.4,32.34-13.4c25.26,0,45.73,20.48,45.73,45.74V265.1C283.561,280.43,300.071,307.84,300.071,339.11z"/>
	<path style="fill:#ED6440;" d="M192.323,50.001v203.86l82.686,82.686c-0.834-20.611-11.678-39.236-29.378-50.196l-11.838-7.331
		V50.001H192.323z"/>
</g>
<g>
</g>
<g>
</g>
<g>
</g>
<g>
</g>
<g>
</g>
<g>
</g>
<g>
</g>
<g>
</g>
<g>
</g>
<g>
</g>
<g>
</g>
<g>
</g>
<g>
</g>
<g>
</g>
<g>
</g>
</svg>
