<?xml version="1.0" encoding="iso-8859-1"?>
<!-- Generator: Adobe Illustrator 19.0.0, SVG Export Plug-In . SVG Version: 6.00 Build 0)  -->
<svg version="1.1" id="Layer_1" xmlns="http://www.w3.org/2000/svg" xmlns:xlink="http://www.w3.org/1999/xlink" x="0px" y="0px"
	 viewBox="0 0 426.123 426.123" style="enable-background:new 0 0 426.123 426.123;" xml:space="preserve">
<g>
	<path style="fill:#76CDCE;" d="M300.072,339.11c0,6.94-0.81,13.68-2.35,20.15c-4.05,17.1-13.15,32.24-25.64,43.77
		c-16.57,15.32-39.11,24.26-63.72,22.97c-44.79-2.36-80.75-39.06-82.26-83.88c-0.81-23.97,8.08-45.85,23.05-62.03
		c5.33-5.78,11.45-10.83,18.17-14.99V45.74c0-12.63,5.12-24.07,13.4-32.34c8.28-8.28,19.71-13.4,32.34-13.4
		c25.26,0,45.73,20.48,45.73,45.74V265.1C283.562,280.43,300.072,307.84,300.072,339.11z"/>
	<path style="fill:#F4581B;" d="M233.794,222.1v56.92l11.838,7.331c18.432,11.414,29.436,31.137,29.436,52.761
		c0,16.564-6.45,32.137-18.161,43.848s-27.281,18.161-43.843,18.161c-0.001,0-0.002,0-0.003,0c-1.124,0-2.264-0.03-3.389-0.089
		c-31.777-1.672-57.511-27.919-58.584-59.755c-0.748-22.187,10.517-43.233,29.399-54.926l11.838-7.331V222.1H233.794z"/>
	<path style="fill:#96E0DE;" d="M300.072,339.11c0,6.94-0.81,13.68-2.35,20.15l-130.4-130.4V45.74c0-12.63,5.12-24.07,13.4-32.34
		c8.28-8.28,19.71-13.4,32.34-13.4c25.26,0,45.73,20.48,45.73,45.74V265.1C283.562,280.43,300.072,307.84,300.072,339.11z"/>
	<path style="fill:#ED6440;" d="M192.324,222.1v31.762l82.686,82.686c-0.834-20.611-11.678-39.236-29.378-50.196l-11.838-7.331
		V222.1H192.324z"/>
</g>
<g>
</g>
<g>
</g>
<g>
</g>
<g>
</g>
<g>
</g>
<g>
</g>
<g>
</g>
<g>
</g>
<g>
</g>
<g>
</g>
<g>
</g>
<g>
</g>
<g>
</g>
<g>
</g>
<g>
</g>
</svg>
