<?xml version="1.0" encoding="iso-8859-1"?>
<!-- Generator: Adobe Illustrator 19.0.0, SVG Export Plug-In . SVG Version: 6.00 Build 0)  -->
<svg version="1.1" id="Layer_1" xmlns="http://www.w3.org/2000/svg" xmlns:xlink="http://www.w3.org/1999/xlink" x="0px" y="0px"
	 viewBox="0 0 450.748 450.748" style="enable-background:new 0 0 450.748 450.748;" xml:space="preserve">
<g>
	<path style="fill:#CCCCCC;" d="M281.5,215.374H0v-15h281.5c28.948,0,52.5-23.552,52.5-52.5s-23.552-52.5-52.5-52.5H274v-15h7.5
		c37.22,0,67.5,30.28,67.5,67.5S318.72,215.374,281.5,215.374z"/>
	<path style="fill:#999999;" d="M281.5,180.374h-65v-15h65c9.649,0,17.5-7.851,17.5-17.5s-7.851-17.5-17.5-17.5H257v-15h24.5
		c17.921,0,32.5,14.579,32.5,32.5S299.421,180.374,281.5,180.374z"/>
	<rect x="52" y="165.374" style="fill:#808080;" width="147.6" height="15"/>
	<path style="fill:#999999;" d="M450.748,345.374h-15v-7.5c0-28.948-23.552-52.5-52.5-52.5H100v-15h283.248
		c37.22,0,67.5,30.28,67.5,67.5V345.374z"/>
	<path style="fill:#808080;" d="M383.248,370.374h-7.5v-15h7.5c9.649,0,17.5-7.85,17.5-17.5s-7.851-17.5-17.5-17.5H103.899v-15
		h279.349c17.921,0,32.5,14.579,32.5,32.5S401.169,370.374,383.248,370.374z"/>
	<rect x="52" y="305.374" style="fill:#CCCCCC;" width="32.7" height="15"/>
	<rect x="295.3" y="235.374" style="fill:#808080;" width="88.7" height="15"/>
	<rect x="26" y="235.374" style="fill:#999999;" width="251" height="15"/>
</g>
<g>
</g>
<g>
</g>
<g>
</g>
<g>
</g>
<g>
</g>
<g>
</g>
<g>
</g>
<g>
</g>
<g>
</g>
<g>
</g>
<g>
</g>
<g>
</g>
<g>
</g>
<g>
</g>
<g>
</g>
</svg>
